<svg width="17" height="17" viewBox="0 0 17 17" fill="none" xmlns="http://www.w3.org/2000/svg">
<g clip-path="url(#clip0_380_19847)">
<path d="M4.00488 6.5C5.10945 6.5 6.00488 5.60457 6.00488 4.5C6.00488 3.39543 5.10945 2.5 4.00488 2.5C2.90031 2.5 2.00488 3.39543 2.00488 4.5C2.00488 5.60457 2.90031 6.5 4.00488 6.5ZM4.00488 6.5V11.1667C4.00488 11.5203 4.14536 11.8594 4.39541 12.1095C4.64546 12.3595 4.98459 12.5 5.33822 12.5H8.67155M8.67155 4.5H12.0049C12.3585 4.5 12.6976 4.64048 12.9477 4.89052C13.1977 5.14057 13.3382 5.47971 13.3382 5.83333V10.5M8.67155 4.5L10.6715 6.5M8.67155 4.5L10.6715 2.5M13.3382 10.5C12.2336 10.5 11.3382 11.3954 11.3382 12.5C11.3382 13.6046 12.2336 14.5 13.3382 14.5C14.4428 14.5 15.3382 13.6046 15.3382 12.5C15.3382 11.3954 14.4428 10.5 13.3382 10.5ZM8.67155 12.5L6.67155 10.5M8.67155 12.5L6.67155 14.5" stroke="#171717" stroke-width="1.33" stroke-linecap="round" stroke-linejoin="round"/>
</g>
<defs>
<clipPath id="clip0_380_19847">
<rect width="16" height="16" fill="white" transform="translate(0.671875 0.5)"/>
</clipPath>
</defs>
</svg>
